<svg id="visual" viewBox="0 0 900 600" width="900" height="600" xmlns="http://www.w3.org/2000/svg" xmlns:xlink="http://www.w3.org/1999/xlink" version="1.1"><g><g transform="translate(204 305)"><path d="M0 -42.9L42.9 0L0 42.9L-42.9 0Z" fill="#1D3557"></path></g><g transform="translate(493 85)"><path d="M0 -15L15 0L0 15L-15 0Z" fill="#1D3557"></path></g><g transform="translate(324 269)"><path d="M0 -10L10 0L0 10L-10 0Z" fill="#1D3557"></path></g><g transform="translate(213 519)"><path d="M0 -20L20 0L0 20L-20 0Z" fill="#1D3557"></path></g><g transform="translate(435 266)"><path d="M0 -13L13 0L0 13L-13 0Z" fill="#1D3557"></path></g><g transform="translate(597 227)"><path d="M0 -18L18 0L0 18L-18 0Z" fill="#1D3557"></path></g><g transform="translate(763 511)"><path d="M0 -40L40 0L0 40L-40 0Z" fill="#1D3557"></path></g><g transform="translate(796 238)"><path d="M0 -9L9 0L0 9L-9 0Z" fill="#1D3557"></path></g><g transform="translate(279 394)"><path d="M0 -10L10 0L0 10L-10 0Z" fill="#1D3557"></path></g><g transform="translate(765 363)"><path d="M0 -40L40 0L0 40L-40 0Z" fill="#1D3557"></path></g><g transform="translate(369 371)"><path d="M0 -27L27 0L0 27L-27 0Z" fill="#1D3557"></path></g><g transform="translate(263 87)"><path d="M0 -20L20 0L0 20L-20 0Z" fill="#1D3557"></path></g><g transform="translate(517 414)"><path d="M0 -39L39 0L0 39L-39 0Z" fill="#1D3557"></path></g><g transform="translate(661 460)"><path d="M0 -5L5 0L0 5L-5 0Z" fill="#1D3557"></path></g></g></svg>