<svg id="visual" viewBox="0 0 960 300" width="960" height="300" xmlns="http://www.w3.org/2000/svg" xmlns:xlink="http://www.w3.org/1999/xlink" version="1.1"><path d="M0 95L22.8 94C45.7 93 91.3 91 137 87.7C182.7 84.3 228.3 79.7 274 80.5C319.7 81.3 365.3 87.7 411.2 91C457 94.3 503 94.7 548.8 88.7C594.7 82.7 640.3 70.3 686 69.2C731.7 68 777.3 78 823 89.8C868.7 101.7 914.3 115.3 937.2 122.2L960 129L960 0L937.2 0C914.3 0 868.7 0 823 0C777.3 0 731.7 0 686 0C640.3 0 594.7 0 548.8 0C503 0 457 0 411.2 0C365.3 0 319.7 0 274 0C228.3 0 182.7 0 137 0C91.3 0 45.7 0 22.8 0L0 0Z" fill="#1D3557" stroke-linecap="round" stroke-linejoin="miter"></path></svg>